<svg width="20" height="20" viewBox="0 0 20 20" fill="none" xmlns="http://www.w3.org/2000/svg">
<path d="M13.8916 10.9417C15.0333 11.7167 15.8333 12.7667 15.8333 14.1667V16.6667H19.1666V14.1667C19.1666 12.35 16.1916 11.275 13.8916 10.9417Z" fill="#1C1C1C"/>
<path d="M12.4999 10C14.3416 10 15.8333 8.50834 15.8333 6.66667C15.8333 4.825 14.3416 3.33334 12.4999 3.33334C12.1083 3.33334 11.7416 3.41667 11.3916 3.53334C12.0833 4.39167 12.4999 5.48334 12.4999 6.66667C12.4999 7.85 12.0833 8.94167 11.3916 9.8C11.7416 9.91667 12.1083 10 12.4999 10Z" fill="#1C1C1C"/>
<path d="M7.49984 10C9.34151 10 10.8332 8.50834 10.8332 6.66667C10.8332 4.825 9.34151 3.33334 7.49984 3.33334C5.65817 3.33334 4.1665 4.825 4.1665 6.66667C4.1665 8.50834 5.65817 10 7.49984 10ZM7.49984 5C8.4165 5 9.1665 5.75 9.1665 6.66667C9.1665 7.58334 8.4165 8.33334 7.49984 8.33334C6.58317 8.33334 5.83317 7.58334 5.83317 6.66667C5.83317 5.75 6.58317 5 7.49984 5Z" fill="#1C1C1C"/>
<path d="M7.49992 10.8333C5.27492 10.8333 0.833252 11.95 0.833252 14.1667V16.6667H14.1666V14.1667C14.1666 11.95 9.72492 10.8333 7.49992 10.8333ZM12.4999 15H2.49992V14.175C2.66659 13.575 5.24992 12.5 7.49992 12.5C9.74992 12.5 12.3333 13.575 12.4999 14.1667V15Z" fill="#1C1C1C"/>
</svg>
