<svg width="148" height="55" viewBox="0 0 148 55" fill="none" xmlns="http://www.w3.org/2000/svg">
<g filter="url(#filter0_d_33_815)">
<path d="M6.99995 24.5C7.00005 19.5935 9.00189 14.888 12.5651 11.4186C16.1282 7.94923 20.9608 6.00012 25.9999 5.99997C26.2598 5.99997 26.5148 6.00475 26.7746 6.0143C28.1626 6.06948 29.5403 6.2712 30.8835 6.61584C30.6237 6.74475 30.3687 6.87365 30.1137 7.0121C30.1088 7.0121 30.1039 7.01688 30.0941 7.02165L30.0892 7.02642C29.8195 7.16965 29.5548 7.31287 29.2949 7.46087C29.2312 7.49907 29.1674 7.53249 29.1037 7.56591C28.8585 7.70913 28.6134 7.85236 28.3731 8.00513C28.302 8.04261 28.2333 8.08405 28.1672 8.12926C27.9808 8.23907 27.7945 8.35843 27.6131 8.47778C27.4856 8.55894 27.3532 8.64487 27.2306 8.72604C27.0443 8.85016 26.8629 8.97429 26.6815 9.1032C26.5589 9.18436 26.4461 9.26552 26.3285 9.35623C26.1715 9.46126 26.0195 9.57584 25.8675 9.69042C25.7303 9.7859 25.5979 9.88616 25.4655 9.9912C25.2792 10.1296 25.0977 10.2729 24.9163 10.4256C24.8379 10.4829 24.7594 10.545 24.681 10.6118C24.4848 10.7694 24.2936 10.9317 24.1024 11.0988C23.9994 11.1847 23.8965 11.2707 23.7935 11.3662C23.6807 11.4616 23.5728 11.5571 23.465 11.6574C23.259 11.8388 23.058 12.0298 22.857 12.2207C22.8301 12.2422 22.8054 12.2661 22.7834 12.2924C22.5873 12.4738 22.3961 12.6647 22.2097 12.8557C22.0774 12.9798 21.9548 13.1087 21.8371 13.2376C21.6949 13.3761 21.5625 13.5193 21.4301 13.6625C21.3517 13.7437 21.2781 13.8249 21.2095 13.906C21.033 14.097 20.8614 14.2927 20.6897 14.4885C20.6015 14.5887 20.5132 14.6938 20.4299 14.7988C20.3024 14.942 20.1798 15.0853 20.067 15.2333C19.9494 15.3717 19.8366 15.5149 19.7287 15.6582C19.6257 15.7823 19.5277 15.9112 19.4345 16.0353C19.307 16.1976 19.1845 16.36 19.0668 16.5271C18.9491 16.6942 18.8216 16.8613 18.7039 17.0331C18.6455 17.1081 18.5915 17.1862 18.5421 17.2671C18.3754 17.5058 18.2136 17.7493 18.0567 17.9927C17.8557 18.2935 17.6645 18.5991 17.483 18.9094C17.3997 19.0431 17.3212 19.1767 17.2428 19.3104C16.6069 20.4023 16.0403 21.5312 15.5463 22.6905C15.4727 22.8529 15.4041 23.0152 15.3403 23.1823C15.2619 23.3589 15.1932 23.5403 15.1246 23.7218C15.0658 23.8698 15.0069 24.0225 14.953 24.1753C14.8892 24.3424 14.8304 24.5143 14.7716 24.6814C14.5558 25.2925 14.3597 25.9083 14.1881 26.5338C14.1439 26.6913 14.0998 26.8441 14.0606 27.0016C14.0312 27.1019 14.0067 27.1974 13.9821 27.2976L13.8645 27.7846C13.7076 28.4482 13.5752 29.1166 13.4624 29.7945L13.3888 30.2529C13.379 30.3245 13.3692 30.3913 13.3594 30.4629C13.33 30.6443 13.3055 30.8258 13.2859 31.0072C13.2516 31.2793 13.2172 31.5514 13.1927 31.8236C13.1829 31.8952 13.178 31.9668 13.1731 32.0384C13.1535 32.2246 13.1388 32.4156 13.1241 32.6018C13.1094 32.788 13.0996 32.9837 13.0898 33.1747C13.0799 33.3083 13.075 33.442 13.0701 33.5805C13.0505 34.0197 13.0407 34.4589 13.0407 34.8981C13.0407 35.1225 13.0407 35.3421 13.0505 35.5618C13.0505 35.6763 13.0505 35.7861 13.0554 35.9007C13.0701 36.297 13.0898 36.6885 13.1192 37.0799V37.0943C13.1241 37.1898 13.129 37.2852 13.1388 37.3807C13.1584 37.6433 13.1829 37.9011 13.2074 38.1637C13.2073 38.1719 13.2089 38.1801 13.2123 38.1876C12.5517 37.6017 11.934 36.9716 11.3638 36.3018L11.3491 36.2874C11.3464 36.2849 11.3447 36.2815 11.3442 36.2779C8.52946 32.9655 6.99269 28.7992 6.99995 24.5Z" fill="#5D68FE"/>
<path d="M13.0408 34.8981C13.0382 29.1874 14.6212 23.5823 17.6224 18.6759C20.6235 13.7694 24.9311 9.74431 30.0893 7.02641C30.0957 7.01916 30.1043 7.0141 30.1139 7.01209L30.1187 7.00732C30.3737 6.87364 30.6286 6.74474 30.8836 6.61583C32.4838 7.02646 34.0206 7.643 35.4534 8.44912C36.49 9.03043 37.4683 9.70497 38.3757 10.4638C38.2041 10.6405 38.0374 10.8171 37.8707 10.9985L37.8658 11.0033C37.8658 11.0081 37.8609 11.0129 37.856 11.0176H37.8511C32.4857 16.8239 29.5227 24.3615 29.5352 32.1721C29.5344 35.5366 30.0806 38.8802 31.1533 42.0785H31.1582C31.1582 42.0881 31.1631 42.0976 31.1631 42.1072H31.168C31.1708 42.1148 31.1725 42.1229 31.1729 42.131C31.271 42.4223 31.3739 42.7135 31.4818 42.9999H26C21.27 43.0063 16.7085 41.2897 13.2124 38.1876C13.1732 37.8247 13.1438 37.4619 13.1193 37.0943C13.0653 36.3686 13.0408 35.6381 13.0408 34.8981Z" fill="#5D68FE"/>
<path d="M29.5352 32.1721C29.5352 31.8523 29.5401 31.5324 29.5499 31.2173C29.5548 31.012 29.5647 30.8115 29.5745 30.6062C29.6137 29.785 29.6872 28.9687 29.7951 28.157C29.8196 27.947 29.849 27.7417 29.8834 27.5364C29.9177 27.2834 29.9618 27.0351 30.0059 26.7821C30.0452 26.5434 30.0893 26.3094 30.1383 26.0707C30.1481 26.0134 30.1628 25.9561 30.1727 25.8988C30.2119 25.7031 30.256 25.5026 30.3001 25.3068C30.5304 24.2894 30.8136 23.2839 31.1484 22.2943C31.2121 22.0986 31.2808 21.9076 31.3494 21.7214C31.3554 21.6985 31.3636 21.6761 31.3739 21.6546C31.4426 21.4589 31.5112 21.2727 31.5848 21.0817C31.6044 21.0244 31.6289 20.9623 31.6534 20.9003C31.7319 20.695 31.8152 20.4945 31.8986 20.2939C31.9917 20.0648 32.0898 19.8356 32.1928 19.6112C32.2957 19.3773 32.4036 19.1434 32.5115 18.9094C32.6145 18.6946 32.7223 18.4798 32.8253 18.2697C32.9381 18.0453 33.0508 17.8257 33.1685 17.6109C33.2862 17.396 33.4039 17.1764 33.5265 16.9616C33.649 16.7467 33.7716 16.5319 33.8942 16.3218C34.0168 16.1118 34.1492 15.8969 34.2816 15.6869C34.4139 15.4768 34.5463 15.2715 34.6836 15.0662C34.9533 14.6556 35.2328 14.2498 35.5221 13.8536C35.8114 13.4573 36.1154 13.0658 36.4194 12.6791C36.8803 12.111 37.3575 11.5572 37.8511 11.0177H37.856C37.8609 11.0129 37.8609 11.0129 37.8609 11.0081C37.8609 11.0069 37.8614 11.0057 37.8623 11.0048C37.8633 11.0039 37.8645 11.0034 37.8658 11.0034C38.0325 10.822 38.2041 10.6405 38.3757 10.4639C39.1483 11.1103 39.8665 11.816 40.5233 12.5741C40.5283 12.5832 40.535 12.5912 40.543 12.598C43.4265 15.9278 45.0055 20.1445 45 24.5V43H31.4818C31.3739 42.7135 31.271 42.4271 31.1778 42.1359L31.1729 42.1311C31.1725 42.123 31.1708 42.1149 31.168 42.1072H31.1631V42.0929C31.1634 42.0903 31.1632 42.0877 31.1623 42.0852C31.1614 42.0827 31.16 42.0805 31.1582 42.0786H31.1533C31.1489 42.0604 31.1424 42.0428 31.1337 42.0261L31.0748 41.8399C30.9081 41.3338 30.7561 40.823 30.6188 40.3026C30.5208 39.9541 30.4325 39.596 30.3492 39.238C30.1972 38.5887 30.0648 37.925 29.952 37.2519C29.9275 37.0896 29.8981 36.932 29.8785 36.7697C29.8196 36.3734 29.7657 35.9772 29.7216 35.5761C29.7019 35.4281 29.6872 35.2754 29.6774 35.1274C29.648 34.8505 29.6284 34.5688 29.6088 34.2919C29.5598 33.5901 29.5352 32.8835 29.5352 32.1721Z" fill="#5D68FE"/>
<g style="mix-blend-mode:multiply" opacity="0.25">
<g style="mix-blend-mode:multiply" opacity="0.25">
<path d="M37.8543 11.0176H37.8485C37.8543 11.0062 37.86 11.0062 37.8657 11.0004C37.8657 11.0062 37.86 11.0119 37.8543 11.0176Z" fill="black"/>
</g>
</g>
<g style="mix-blend-mode:multiply" opacity="0.25">
<g style="mix-blend-mode:multiply" opacity="0.25">
<path d="M31.165 42.1072C31.1625 42.0974 31.1592 42.0879 31.1552 42.0786H31.1601C31.165 42.0881 31.165 42.0977 31.1699 42.1072C31.1727 42.1149 31.1744 42.123 31.1748 42.1311C31.171 42.1234 31.1677 42.1154 31.165 42.1072Z" fill="black"/>
</g>
</g>
<g style="mix-blend-mode:multiply" opacity="0.25">
<g style="mix-blend-mode:multiply" opacity="0.25">
<path d="M7.00001 24.4999C7.00016 19.5935 9.00195 14.888 12.5651 11.4186C16.1283 7.94918 20.9609 6.00006 26 5.99992C26 5.99992 25.8333 6.01424 25.5195 6.04289C25.2008 6.06199 24.7448 6.12883 24.1662 6.20521C23.5876 6.29592 22.8914 6.4296 22.1068 6.62057C21.236 6.85188 20.3798 7.13245 19.5425 7.46082C18.561 7.85847 17.6134 8.33101 16.7084 8.87398C15.7093 9.48288 14.766 10.1745 13.889 10.9412C12.957 11.7625 12.1081 12.6689 11.3541 13.6482C10.5715 14.6526 9.90242 15.7363 9.35846 16.8803C8.80268 18.0206 8.37051 19.2143 8.06891 20.4418C7.77747 21.6309 7.60345 22.8442 7.54918 24.0655C7.50166 25.2138 7.55741 26.364 7.71588 27.5029C7.86224 28.5267 8.09348 29.5374 8.40724 30.5249C8.67589 31.3657 9.00018 32.1885 9.37807 32.9884C9.7262 33.6998 10.0596 34.3109 10.3587 34.7978C10.6578 35.2848 10.9079 35.6667 11.0893 35.915C11.2266 36.106 11.3099 36.2253 11.3443 36.2778C8.52952 32.9655 6.99281 28.7991 7.00001 24.4999Z" fill="#5D68FE"/>
</g>
</g>
<g style="mix-blend-mode:screen" opacity="0.4">
<g style="mix-blend-mode:screen" opacity="0.4">
<path d="M41.9355 42.5846L44.4852 42.5226L44.4263 39.0661C44.4018 37.7579 44.4067 36.445 44.3969 35.1321C44.3871 33.8192 44.3871 32.5111 44.3969 31.203C44.4067 29.8948 44.4018 28.5819 44.4263 27.269L44.4606 25.3021L44.4704 24.3329C44.4655 24.0035 44.4753 23.6693 44.4557 23.359C44.4348 22.723 44.3776 22.0886 44.2841 21.4589C44.191 20.8239 44.0586 20.1937 43.9066 19.5683C43.7513 18.9444 43.5614 18.3293 43.3378 17.7254C43.1172 17.1143 42.8573 16.5176 42.5778 15.9303C42.2836 15.3527 41.9845 14.7702 41.6315 14.2116C41.2981 13.6626 40.9254 13.1231 40.543 12.598C43.4265 15.9278 45.0055 20.1445 45 24.5V43H32.7419C34.7866 42.8568 36.8263 42.7708 38.871 42.6897L41.9355 42.5846Z" fill="#C4C4C4"/>
</g>
</g>
<path d="M43.5906 12.8281C43.396 12.6311 43.1645 12.4748 42.9094 12.3681C42.6543 12.2614 42.3807 12.2064 42.1044 12.2064C41.828 12.2064 41.5544 12.2614 41.2993 12.3681C41.0442 12.4748 40.8127 12.6311 40.6181 12.8281L25.0228 28.5076L18.4707 21.908C18.2686 21.712 18.0301 21.5579 17.7688 21.4545C17.5074 21.3511 17.2283 21.3003 16.9474 21.3052C16.6665 21.3101 16.3894 21.3705 16.1317 21.4829C15.8741 21.5953 15.641 21.7576 15.4458 21.9605C15.2507 22.1634 15.0972 22.4029 14.9942 22.6653C14.8912 22.9277 14.8407 23.2079 14.8455 23.4899C14.8504 23.772 14.9105 24.0503 15.0225 24.3089C15.1345 24.5676 15.2961 24.8016 15.4982 24.9976L23.5366 33.0686C23.7312 33.2656 23.9627 33.4219 24.2178 33.5286C24.4729 33.6353 24.7465 33.6903 25.0228 33.6903C25.2992 33.6903 25.5728 33.6353 25.8279 33.5286C26.083 33.4219 26.3145 33.2656 26.5091 33.0686L43.5906 15.9178C43.8031 15.721 43.9727 15.4821 44.0887 15.2162C44.2047 14.9503 44.2645 14.6632 44.2645 14.373C44.2645 14.0827 44.2047 13.7956 44.0887 13.5297C43.9727 13.2638 43.8031 13.025 43.5906 12.8281Z" fill="#F5F5F5"/>
</g>
<path d="M68.056 15.248V17.96H63.592V32H60.232V17.96H55.768V15.248H68.056ZM69.8836 25.304C69.8836 23.96 70.1476 22.768 70.6756 21.728C71.2196 20.688 71.9476 19.888 72.8596 19.328C73.7876 18.768 74.8196 18.488 75.9556 18.488C76.9476 18.488 77.8116 18.688 78.5476 19.088C79.2996 19.488 79.8996 19.992 80.3476 20.6V18.704H83.7316V32H80.3476V30.056C79.9156 30.68 79.3156 31.2 78.5476 31.616C77.7956 32.016 76.9236 32.216 75.9316 32.216C74.8116 32.216 73.7876 31.928 72.8596 31.352C71.9476 30.776 71.2196 29.968 70.6756 28.928C70.1476 27.872 69.8836 26.664 69.8836 25.304ZM80.3476 25.352C80.3476 24.536 80.1876 23.84 79.8676 23.264C79.5476 22.672 79.1156 22.224 78.5716 21.92C78.0276 21.6 77.4436 21.44 76.8196 21.44C76.1956 21.44 75.6196 21.592 75.0916 21.896C74.5636 22.2 74.1316 22.648 73.7956 23.24C73.4756 23.816 73.3156 24.504 73.3156 25.304C73.3156 26.104 73.4756 26.808 73.7956 27.416C74.1316 28.008 74.5636 28.464 75.0916 28.784C75.6356 29.104 76.2116 29.264 76.8196 29.264C77.4436 29.264 78.0276 29.112 78.5716 28.808C79.1156 28.488 79.5476 28.04 79.8676 27.464C80.1876 26.872 80.3476 26.168 80.3476 25.352ZM92.3412 32.216C91.2532 32.216 90.2772 32.024 89.4132 31.64C88.5492 31.24 87.8612 30.704 87.3492 30.032C86.8532 29.36 86.5812 28.616 86.5332 27.8H89.9172C89.9812 28.312 90.2292 28.736 90.6612 29.072C91.1092 29.408 91.6612 29.576 92.3172 29.576C92.9572 29.576 93.4532 29.448 93.8052 29.192C94.1732 28.936 94.3572 28.608 94.3572 28.208C94.3572 27.776 94.1332 27.456 93.6852 27.248C93.2532 27.024 92.5572 26.784 91.5972 26.528C90.6052 26.288 89.7892 26.04 89.1492 25.784C88.5252 25.528 87.9812 25.136 87.5172 24.608C87.0692 24.08 86.8452 23.368 86.8452 22.472C86.8452 21.736 87.0532 21.064 87.4692 20.456C87.9012 19.848 88.5092 19.368 89.2932 19.016C90.0932 18.664 91.0292 18.488 92.1012 18.488C93.6852 18.488 94.9492 18.888 95.8932 19.688C96.8372 20.472 97.3572 21.536 97.4532 22.88H94.2372C94.1892 22.352 93.9652 21.936 93.5652 21.632C93.1812 21.312 92.6612 21.152 92.0052 21.152C91.3972 21.152 90.9252 21.264 90.5892 21.488C90.2692 21.712 90.1092 22.024 90.1092 22.424C90.1092 22.872 90.3332 23.216 90.7812 23.456C91.2292 23.68 91.9252 23.912 92.8692 24.152C93.8292 24.392 94.6212 24.64 95.2452 24.896C95.8692 25.152 96.4052 25.552 96.8532 26.096C97.3172 26.624 97.5572 27.328 97.5732 28.208C97.5732 28.976 97.3572 29.664 96.9252 30.272C96.5092 30.88 95.9012 31.36 95.1012 31.712C94.3172 32.048 93.3972 32.216 92.3412 32.216ZM108.443 32L103.931 26.336V32H100.571V14.24H103.931V24.344L108.395 18.704H112.763L106.907 25.376L112.811 32H108.443ZM126.491 20.288C126.107 19.584 125.579 19.048 124.907 18.68C124.235 18.312 123.451 18.128 122.555 18.128C121.563 18.128 120.683 18.352 119.915 18.8C119.147 19.248 118.547 19.888 118.115 20.72C117.683 21.552 117.467 22.512 117.467 23.6C117.467 24.72 117.683 25.696 118.115 26.528C118.563 27.36 119.179 28 119.963 28.448C120.747 28.896 121.659 29.12 122.699 29.12C123.979 29.12 125.027 28.784 125.843 28.112C126.659 27.424 127.195 26.472 127.451 25.256H121.691V22.688H130.763V25.616C130.539 26.784 130.059 27.864 129.323 28.856C128.587 29.848 127.635 30.648 126.467 31.256C125.315 31.848 124.019 32.144 122.579 32.144C120.963 32.144 119.499 31.784 118.187 31.064C116.891 30.328 115.867 29.312 115.115 28.016C114.379 26.72 114.011 25.248 114.011 23.6C114.011 21.952 114.379 20.48 115.115 19.184C115.867 17.872 116.891 16.856 118.187 16.136C119.499 15.4 120.955 15.032 122.555 15.032C124.443 15.032 126.083 15.496 127.475 16.424C128.867 17.336 129.827 18.624 130.355 20.288H126.491ZM139.393 32.216C138.113 32.216 136.961 31.936 135.937 31.376C134.913 30.8 134.105 29.992 133.513 28.952C132.937 27.912 132.649 26.712 132.649 25.352C132.649 23.992 132.945 22.792 133.537 21.752C134.145 20.712 134.969 19.912 136.009 19.352C137.049 18.776 138.209 18.488 139.489 18.488C140.769 18.488 141.929 18.776 142.969 19.352C144.009 19.912 144.825 20.712 145.417 21.752C146.025 22.792 146.329 23.992 146.329 25.352C146.329 26.712 146.017 27.912 145.393 28.952C144.785 29.992 143.953 30.8 142.897 31.376C141.857 31.936 140.689 32.216 139.393 32.216ZM139.393 29.288C140.001 29.288 140.569 29.144 141.097 28.856C141.641 28.552 142.073 28.104 142.393 27.512C142.713 26.92 142.873 26.2 142.873 25.352C142.873 24.088 142.537 23.12 141.865 22.448C141.209 21.76 140.401 21.416 139.441 21.416C138.481 21.416 137.673 21.76 137.017 22.448C136.377 23.12 136.057 24.088 136.057 25.352C136.057 26.616 136.369 27.592 136.993 28.28C137.633 28.952 138.433 29.288 139.393 29.288Z" fill="black"/>
<line x1="119" y1="41.5" x2="142.323" y2="41.5" stroke="#5D68FE" stroke-width="3"/>
<defs>
<filter id="filter0_d_33_815" x="0" y="-6.10352e-05" width="56" height="55.0001" filterUnits="userSpaceOnUse" color-interpolation-filters="sRGB">
<feFlood flood-opacity="0" result="BackgroundImageFix"/>
<feColorMatrix in="SourceAlpha" type="matrix" values="0 0 0 0 0 0 0 0 0 0 0 0 0 0 0 0 0 0 127 0" result="hardAlpha"/>
<feOffset dx="2" dy="3"/>
<feGaussianBlur stdDeviation="4.5"/>
<feComposite in2="hardAlpha" operator="out"/>
<feColorMatrix type="matrix" values="0 0 0 0 0 0 0 0 0 0 0 0 0 0 0 0 0 0 0.14 0"/>
<feBlend mode="normal" in2="BackgroundImageFix" result="effect1_dropShadow_33_815"/>
<feBlend mode="normal" in="SourceGraphic" in2="effect1_dropShadow_33_815" result="shape"/>
</filter>
</defs>
</svg>
